<?xml version="1.0" encoding="UTF-8" standalone="no"?>
<!DOCTYPE svg PUBLIC "-//W3C//DTD SVG 1.1//EN"
 "http://www.w3.org/Graphics/SVG/1.1/DTD/svg11.dtd">
<!-- Generated by graphviz version 2.38.0 (20140413.2041)
 -->
<!-- Title: G Pages: 1 -->
<svg width="787pt" height="2610pt"
 viewBox="0.00 0.00 786.96 2610.00" xmlns="http://www.w3.org/2000/svg" xmlns:xlink="http://www.w3.org/1999/xlink">
<g id="graph0" class="graph" transform="scale(1 1) rotate(0) translate(4 2606)">
<title>G</title>
<polygon fill="white" stroke="none" points="-4,4 -4,-2606 782.956,-2606 782.956,4 -4,4"/>
<g id="clust1" class="cluster"><title>cluster_Global</title>
<path fill="none" stroke="gray" d="M537.956,-8C537.956,-8 758.956,-8 758.956,-8 764.956,-8 770.956,-14 770.956,-20 770.956,-20 770.956,-2582 770.956,-2582 770.956,-2588 764.956,-2594 758.956,-2594 758.956,-2594 537.956,-2594 537.956,-2594 531.956,-2594 525.956,-2588 525.956,-2582 525.956,-2582 525.956,-20 525.956,-20 525.956,-14 531.956,-8 537.956,-8"/>
<text text-anchor="middle" x="648.456" y="-2581.2" font-family="Times,serif" font-size="11.00" fill="gray">Global</text>
</g>
<g id="clust2" class="cluster"><title>cluster_\IMIE</title>
<path fill="none" stroke="gray" d="M545.956,-16C545.956,-16 750.956,-16 750.956,-16 756.956,-16 762.956,-22 762.956,-28 762.956,-28 762.956,-2554 762.956,-2554 762.956,-2560 756.956,-2566 750.956,-2566 750.956,-2566 545.956,-2566 545.956,-2566 539.956,-2566 533.956,-2560 533.956,-2554 533.956,-2554 533.956,-28 533.956,-28 533.956,-22 539.956,-16 545.956,-16"/>
<text text-anchor="middle" x="648.456" y="-2553.2" font-family="Times,serif" font-size="11.00" fill="gray">IMIE</text>
</g>
<g id="clust3" class="cluster"><title>cluster_\IMIE\CraftingBundle</title>
<path fill="none" stroke="gray" d="M553.956,-24C553.956,-24 742.956,-24 742.956,-24 748.956,-24 754.956,-30 754.956,-36 754.956,-36 754.956,-2526 754.956,-2526 754.956,-2532 748.956,-2538 742.956,-2538 742.956,-2538 553.956,-2538 553.956,-2538 547.956,-2538 541.956,-2532 541.956,-2526 541.956,-2526 541.956,-36 541.956,-36 541.956,-30 547.956,-24 553.956,-24"/>
<text text-anchor="middle" x="648.456" y="-2525.2" font-family="Times,serif" font-size="11.00" fill="gray">CraftingBundle</text>
</g>
<g id="clust4" class="cluster"><title>cluster_\IMIE\CraftingBundle\Tests</title>
<path fill="none" stroke="gray" d="M561.956,-1998C561.956,-1998 734.956,-1998 734.956,-1998 740.956,-1998 746.956,-2004 746.956,-2010 746.956,-2010 746.956,-2498 746.956,-2498 746.956,-2504 740.956,-2510 734.956,-2510 734.956,-2510 561.956,-2510 561.956,-2510 555.956,-2510 549.956,-2504 549.956,-2498 549.956,-2498 549.956,-2010 549.956,-2010 549.956,-2004 555.956,-1998 561.956,-1998"/>
<text text-anchor="middle" x="648.456" y="-2497.2" font-family="Times,serif" font-size="11.00" fill="gray">Tests</text>
</g>
<g id="clust5" class="cluster"><title>cluster_\IMIE\CraftingBundle\Tests\Controller</title>
<path fill="none" stroke="gray" d="M569.956,-2086C569.956,-2086 726.956,-2086 726.956,-2086 732.956,-2086 738.956,-2092 738.956,-2098 738.956,-2098 738.956,-2470 738.956,-2470 738.956,-2476 732.956,-2482 726.956,-2482 726.956,-2482 569.956,-2482 569.956,-2482 563.956,-2482 557.956,-2476 557.956,-2470 557.956,-2470 557.956,-2098 557.956,-2098 557.956,-2092 563.956,-2086 569.956,-2086"/>
<text text-anchor="middle" x="648.456" y="-2469.2" font-family="Times,serif" font-size="11.00" fill="gray">Controller</text>
</g>
<g id="clust6" class="cluster"><title>cluster_\IMIE\CraftingBundle\Tests\Repository</title>
<path fill="none" stroke="gray" d="M610.456,-2006C610.456,-2006 686.456,-2006 686.456,-2006 692.456,-2006 698.456,-2012 698.456,-2018 698.456,-2018 698.456,-2066 698.456,-2066 698.456,-2072 692.456,-2078 686.456,-2078 686.456,-2078 610.456,-2078 610.456,-2078 604.456,-2078 598.456,-2072 598.456,-2066 598.456,-2066 598.456,-2018 598.456,-2018 598.456,-2012 604.456,-2006 610.456,-2006"/>
<text text-anchor="middle" x="648.456" y="-2065.2" font-family="Times,serif" font-size="11.00" fill="gray">Repository</text>
</g>
<g id="clust7" class="cluster"><title>cluster_\IMIE\CraftingBundle\DataFixtures</title>
<path fill="none" stroke="gray" d="M595.456,-1558C595.456,-1558 701.456,-1558 701.456,-1558 707.456,-1558 713.456,-1564 713.456,-1570 713.456,-1570 713.456,-1978 713.456,-1978 713.456,-1984 707.456,-1990 701.456,-1990 701.456,-1990 595.456,-1990 595.456,-1990 589.456,-1990 583.456,-1984 583.456,-1978 583.456,-1978 583.456,-1570 583.456,-1570 583.456,-1564 589.456,-1558 595.456,-1558"/>
<text text-anchor="middle" x="648.456" y="-1977.2" font-family="Times,serif" font-size="11.00" fill="gray">DataFixtures</text>
</g>
<g id="clust8" class="cluster"><title>cluster_\IMIE\CraftingBundle\DataFixtures\ORM</title>
<path fill="none" stroke="gray" d="M603.456,-1566C603.456,-1566 693.456,-1566 693.456,-1566 699.456,-1566 705.456,-1572 705.456,-1578 705.456,-1578 705.456,-1950 705.456,-1950 705.456,-1956 699.456,-1962 693.456,-1962 693.456,-1962 603.456,-1962 603.456,-1962 597.456,-1962 591.456,-1956 591.456,-1950 591.456,-1950 591.456,-1578 591.456,-1578 591.456,-1572 597.456,-1566 603.456,-1566"/>
<text text-anchor="middle" x="648.456" y="-1949.2" font-family="Times,serif" font-size="11.00" fill="gray">ORM</text>
</g>
<g id="clust9" class="cluster"><title>cluster_\IMIE\CraftingBundle\Entity</title>
<path fill="none" stroke="gray" d="M616.956,-1154C616.956,-1154 679.956,-1154 679.956,-1154 685.956,-1154 691.956,-1160 691.956,-1166 691.956,-1166 691.956,-1538 691.956,-1538 691.956,-1544 685.956,-1550 679.956,-1550 679.956,-1550 616.956,-1550 616.956,-1550 610.956,-1550 604.956,-1544 604.956,-1538 604.956,-1538 604.956,-1166 604.956,-1166 604.956,-1160 610.956,-1154 616.956,-1154"/>
<text text-anchor="middle" x="648.456" y="-1537.2" font-family="Times,serif" font-size="11.00" fill="gray">Entity</text>
</g>
<g id="clust10" class="cluster"><title>cluster_\IMIE\CraftingBundle\DependencyInjection</title>
<path fill="none" stroke="gray" d="M573.456,-1020C573.456,-1020 723.456,-1020 723.456,-1020 729.456,-1020 735.456,-1026 735.456,-1032 735.456,-1032 735.456,-1134 735.456,-1134 735.456,-1140 729.456,-1146 723.456,-1146 723.456,-1146 573.456,-1146 573.456,-1146 567.456,-1146 561.456,-1140 561.456,-1134 561.456,-1134 561.456,-1032 561.456,-1032 561.456,-1026 567.456,-1020 573.456,-1020"/>
<text text-anchor="middle" x="648.456" y="-1133.2" font-family="Times,serif" font-size="11.00" fill="gray">DependencyInjection</text>
</g>
<g id="clust11" class="cluster"><title>cluster_\IMIE\CraftingBundle\Controller</title>
<path fill="none" stroke="gray" d="M583.456,-562C583.456,-562 713.456,-562 713.456,-562 719.456,-562 725.456,-568 725.456,-574 725.456,-574 725.456,-1000 725.456,-1000 725.456,-1006 719.456,-1012 713.456,-1012 713.456,-1012 583.456,-1012 583.456,-1012 577.456,-1012 571.456,-1006 571.456,-1000 571.456,-1000 571.456,-574 571.456,-574 571.456,-568 577.456,-562 583.456,-562"/>
<text text-anchor="middle" x="648.456" y="-999.2" font-family="Times,serif" font-size="11.00" fill="gray">Controller</text>
</g>
<g id="clust12" class="cluster"><title>cluster_\IMIE\CraftingBundle\Form</title>
<path fill="none" stroke="gray" d="M603.456,-78C603.456,-78 693.456,-78 693.456,-78 699.456,-78 705.456,-84 705.456,-90 705.456,-90 705.456,-462 705.456,-462 705.456,-468 699.456,-474 693.456,-474 693.456,-474 603.456,-474 603.456,-474 597.456,-474 591.456,-468 591.456,-462 591.456,-462 591.456,-90 591.456,-90 591.456,-84 597.456,-78 603.456,-78"/>
<text text-anchor="middle" x="648.456" y="-461.2" font-family="Times,serif" font-size="11.00" fill="gray">Form</text>
</g>
<g id="clust13" class="cluster"><title>cluster_\IMIE\CraftingBundle\Service</title>
<path fill="none" stroke="gray" d="M606.956,-482C606.956,-482 689.956,-482 689.956,-482 695.956,-482 701.956,-488 701.956,-494 701.956,-494 701.956,-542 701.956,-542 701.956,-548 695.956,-554 689.956,-554 689.956,-554 606.956,-554 606.956,-554 600.956,-554 594.956,-548 594.956,-542 594.956,-542 594.956,-494 594.956,-494 594.956,-488 600.956,-482 606.956,-482"/>
<text text-anchor="middle" x="648.456" y="-541.2" font-family="Times,serif" font-size="11.00" fill="gray">Service</text>
</g>
<!-- \\IMIE\\CraftingBundle\\Tests\\Controller\\BootControllerTest -->
<g id="node1" class="node"><title>\\IMIE\\CraftingBundle\\Tests\\Controller\\BootControllerTest</title>
<polygon fill="none" stroke="black" points="717.456,-2184 579.456,-2184 579.456,-2148 717.456,-2148 717.456,-2184"/>
<text text-anchor="middle" x="648.456" y="-2163.2" font-family="Courier,monospace" font-size="11.00">BootControllerTest</text>
</g>
<!-- \\Symfony\\Bundle\\FrameworkBundle\\Test\\WebTestCase -->
<g id="node42" class="node"><title>\\Symfony\\Bundle\\FrameworkBundle\\Test\\WebTestCase</title>
<ellipse fill="none" stroke="black" cx="246.978" cy="-2247" rx="211.762" ry="18"/>
<text text-anchor="middle" x="246.978" y="-2243.3" font-family="Times,serif" font-size="14.00" fill="gray">\Symfony\Bundle\FrameworkBundle\Test\WebTestCase</text>
</g>
<!-- \\IMIE\\CraftingBundle\\Tests\\Controller\\BootControllerTest&#45;&gt;\\Symfony\\Bundle\\FrameworkBundle\\Test\\WebTestCase -->
<g id="edge1" class="edge"><title>\\IMIE\\CraftingBundle\\Tests\\Controller\\BootControllerTest&#45;&gt;\\Symfony\\Bundle\\FrameworkBundle\\Test\\WebTestCase</title>
<path fill="none" stroke="black" d="M579.237,-2179.83C513.259,-2193.21 412.816,-2213.58 339.83,-2228.38"/>
<polygon fill="none" stroke="black" points="338.825,-2225.01 329.72,-2230.43 340.216,-2231.87 338.825,-2225.01"/>
</g>
<!-- \\IMIE\\CraftingBundle\\Tests\\Controller\\GuildControllerTest -->
<g id="node2" class="node"><title>\\IMIE\\CraftingBundle\\Tests\\Controller\\GuildControllerTest</title>
<polygon fill="none" stroke="black" points="720.956,-2130 575.956,-2130 575.956,-2094 720.956,-2094 720.956,-2130"/>
<text text-anchor="middle" x="648.456" y="-2109.2" font-family="Courier,monospace" font-size="11.00">GuildControllerTest</text>
</g>
<!-- \\IMIE\\CraftingBundle\\Tests\\Controller\\GuildControllerTest&#45;&gt;\\Symfony\\Bundle\\FrameworkBundle\\Test\\WebTestCase -->
<g id="edge9" class="edge"><title>\\IMIE\\CraftingBundle\\Tests\\Controller\\GuildControllerTest&#45;&gt;\\Symfony\\Bundle\\FrameworkBundle\\Test\\WebTestCase</title>
<path fill="none" stroke="black" d="M575.672,-2126.06C559.213,-2129.8 541.878,-2134.17 525.956,-2139 444.166,-2163.82 352.263,-2201.54 297.305,-2225.2"/>
<polygon fill="none" stroke="black" points="295.604,-2222.13 287.815,-2229.31 298.383,-2228.55 295.604,-2222.13"/>
</g>
<!-- \\IMIE\\CraftingBundle\\Tests\\Controller\\PersoControllerTest -->
<g id="node3" class="node"><title>\\IMIE\\CraftingBundle\\Tests\\Controller\\PersoControllerTest</title>
<polygon fill="none" stroke="black" points="720.956,-2454 575.956,-2454 575.956,-2418 720.956,-2418 720.956,-2454"/>
<text text-anchor="middle" x="648.456" y="-2433.2" font-family="Courier,monospace" font-size="11.00">PersoControllerTest</text>
</g>
<!-- \\IMIE\\CraftingBundle\\Tests\\Controller\\PersoControllerTest&#45;&gt;\\Symfony\\Bundle\\FrameworkBundle\\Test\\WebTestCase -->
<g id="edge11" class="edge"><title>\\IMIE\\CraftingBundle\\Tests\\Controller\\PersoControllerTest&#45;&gt;\\Symfony\\Bundle\\FrameworkBundle\\Test\\WebTestCase</title>
<path fill="none" stroke="black" d="M575.684,-2423.9C559.061,-2420.05 541.651,-2415.14 525.956,-2409 431.552,-2372.04 331.282,-2306.06 280.917,-2270.78"/>
<polygon fill="none" stroke="black" points="282.877,-2267.88 272.687,-2264.98 278.843,-2273.6 282.877,-2267.88"/>
</g>
<!-- \\IMIE\\CraftingBundle\\Tests\\Controller\\HelmetControllerTest -->
<g id="node4" class="node"><title>\\IMIE\\CraftingBundle\\Tests\\Controller\\HelmetControllerTest</title>
<polygon fill="none" stroke="black" points="724.456,-2400 572.456,-2400 572.456,-2364 724.456,-2364 724.456,-2400"/>
<text text-anchor="middle" x="648.456" y="-2379.2" font-family="Courier,monospace" font-size="11.00">HelmetControllerTest</text>
</g>
<!-- \\IMIE\\CraftingBundle\\Tests\\Controller\\HelmetControllerTest&#45;&gt;\\Symfony\\Bundle\\FrameworkBundle\\Test\\WebTestCase -->
<g id="edge13" class="edge"><title>\\IMIE\\CraftingBundle\\Tests\\Controller\\HelmetControllerTest&#45;&gt;\\Symfony\\Bundle\\FrameworkBundle\\Test\\WebTestCase</title>
<path fill="none" stroke="black" d="M572.456,-2367.21C556.968,-2363.63 540.844,-2359.52 525.956,-2355 444.166,-2330.18 352.263,-2292.46 297.305,-2268.8"/>
<polygon fill="none" stroke="black" points="298.383,-2265.45 287.815,-2264.69 295.604,-2271.87 298.383,-2265.45"/>
</g>
<!-- \\IMIE\\CraftingBundle\\Tests\\Controller\\RegisterControllerTest -->
<g id="node5" class="node"><title>\\IMIE\\CraftingBundle\\Tests\\Controller\\RegisterControllerTest</title>
<polygon fill="none" stroke="black" points="730.956,-2346 565.956,-2346 565.956,-2310 730.956,-2310 730.956,-2346"/>
<text text-anchor="middle" x="648.456" y="-2325.2" font-family="Courier,monospace" font-size="11.00">RegisterControllerTest</text>
</g>
<!-- \\IMIE\\CraftingBundle\\Tests\\Controller\\RegisterControllerTest&#45;&gt;\\Symfony\\Bundle\\FrameworkBundle\\Test\\WebTestCase -->
<g id="edge22" class="edge"><title>\\IMIE\\CraftingBundle\\Tests\\Controller\\RegisterControllerTest&#45;&gt;\\Symfony\\Bundle\\FrameworkBundle\\Test\\WebTestCase</title>
<path fill="none" stroke="black" d="M565.652,-2311.41C500.055,-2298.11 408.02,-2279.45 339.888,-2265.64"/>
<polygon fill="none" stroke="black" points="340.512,-2262.19 330.016,-2263.63 339.121,-2269.05 340.512,-2262.19"/>
</g>
<!-- \\IMIE\\CraftingBundle\\Tests\\Controller\\ContactControllerTest -->
<g id="node6" class="node"><title>\\IMIE\\CraftingBundle\\Tests\\Controller\\ContactControllerTest</title>
<polygon fill="none" stroke="black" points="727.456,-2292 569.456,-2292 569.456,-2256 727.456,-2256 727.456,-2292"/>
<text text-anchor="middle" x="648.456" y="-2271.2" font-family="Courier,monospace" font-size="11.00">ContactControllerTest</text>
</g>
<!-- \\IMIE\\CraftingBundle\\Tests\\Controller\\ContactControllerTest&#45;&gt;\\Symfony\\Bundle\\FrameworkBundle\\Test\\WebTestCase -->
<g id="edge27" class="edge"><title>\\IMIE\\CraftingBundle\\Tests\\Controller\\ContactControllerTest&#45;&gt;\\Symfony\\Bundle\\FrameworkBundle\\Test\\WebTestCase</title>
<path fill="none" stroke="black" d="M569.009,-2268.7C527.363,-2265.88 474.395,-2262.3 423.548,-2258.87"/>
<polygon fill="none" stroke="black" points="423.624,-2255.36 413.411,-2258.18 423.152,-2262.35 423.624,-2255.36"/>
</g>
<!-- \\IMIE\\CraftingBundle\\Tests\\Controller\\LegControllerTest -->
<g id="node7" class="node"><title>\\IMIE\\CraftingBundle\\Tests\\Controller\\LegControllerTest</title>
<polygon fill="none" stroke="black" points="713.956,-2238 582.956,-2238 582.956,-2202 713.956,-2202 713.956,-2238"/>
<text text-anchor="middle" x="648.456" y="-2217.2" font-family="Courier,monospace" font-size="11.00">LegControllerTest</text>
</g>
<!-- \\IMIE\\CraftingBundle\\Tests\\Controller\\LegControllerTest&#45;&gt;\\Symfony\\Bundle\\FrameworkBundle\\Test\\WebTestCase -->
<g id="edge28" class="edge"><title>\\IMIE\\CraftingBundle\\Tests\\Controller\\LegControllerTest&#45;&gt;\\Symfony\\Bundle\\FrameworkBundle\\Test\\WebTestCase</title>
<path fill="none" stroke="black" d="M582.829,-2224.37C539.5,-2227.3 480.201,-2231.3 423.537,-2235.13"/>
<polygon fill="none" stroke="black" points="423.104,-2231.66 413.363,-2235.82 423.576,-2238.64 423.104,-2231.66"/>
</g>
<!-- \\IMIE\\CraftingBundle\\Tests\\Repository\\BootDbTest -->
<g id="node8" class="node"><title>\\IMIE\\CraftingBundle\\Tests\\Repository\\BootDbTest</title>
<polygon fill="none" stroke="black" points="690.456,-2050 606.456,-2050 606.456,-2014 690.456,-2014 690.456,-2050"/>
<text text-anchor="middle" x="648.456" y="-2029.2" font-family="Courier,monospace" font-size="11.00">BootDbTest</text>
</g>
<!-- \\IMIE\\CraftingBundle\\Tests\\Repository\\BootDbTest&#45;&gt;\\Symfony\\Bundle\\FrameworkBundle\\Test\\WebTestCase -->
<g id="edge19" class="edge"><title>\\IMIE\\CraftingBundle\\Tests\\Repository\\BootDbTest&#45;&gt;\\Symfony\\Bundle\\FrameworkBundle\\Test\\WebTestCase</title>
<path fill="none" stroke="black" d="M606.298,-2047.22C582.454,-2056.46 552.079,-2068.96 525.956,-2082 436.008,-2126.91 335.83,-2189.76 283.782,-2223.45"/>
<polygon fill="none" stroke="black" points="281.723,-2220.62 275.243,-2229 285.536,-2226.49 281.723,-2220.62"/>
</g>
<!-- \\IMIE\\CraftingBundle\\DataFixtures\\ORM\\RegisterData -->
<g id="node9" class="node"><title>\\IMIE\\CraftingBundle\\DataFixtures\\ORM\\RegisterData</title>
<polygon fill="none" stroke="black" points="697.456,-1826 599.456,-1826 599.456,-1790 697.456,-1790 697.456,-1826"/>
<text text-anchor="middle" x="648.456" y="-1805.2" font-family="Courier,monospace" font-size="11.00">RegisterData</text>
</g>
<!-- \\Doctrine\\Common\\DataFixtures\\AbstractFixture -->
<g id="node43" class="node"><title>\\Doctrine\\Common\\DataFixtures\\AbstractFixture</title>
<ellipse fill="none" stroke="black" cx="246.978" cy="-1781" rx="185.467" ry="18"/>
<text text-anchor="middle" x="246.978" y="-1777.3" font-family="Times,serif" font-size="14.00" fill="gray">\Doctrine\Common\DataFixtures\AbstractFixture</text>
</g>
<!-- \\IMIE\\CraftingBundle\\DataFixtures\\ORM\\RegisterData&#45;&gt;\\Doctrine\\Common\\DataFixtures\\AbstractFixture -->
<g id="edge2" class="edge"><title>\\IMIE\\CraftingBundle\\DataFixtures\\ORM\\RegisterData&#45;&gt;\\Doctrine\\Common\\DataFixtures\\AbstractFixture</title>
<path fill="none" stroke="black" d="M599.27,-1804.74C552.196,-1801.56 477.877,-1796.54 409.696,-1791.93"/>
<polygon fill="none" stroke="black" points="409.898,-1788.44 399.685,-1791.25 409.426,-1795.42 409.898,-1788.44"/>
</g>
<!-- \\Doctrine\\Common\\DataFixtures\\OrderedFixtureInterface -->
<g id="node44" class="node"><title>\\Doctrine\\Common\\DataFixtures\\OrderedFixtureInterface</title>
<ellipse fill="none" stroke="black" cx="246.978" cy="-1727" rx="215.562" ry="18"/>
<text text-anchor="middle" x="246.978" y="-1723.3" font-family="Times,serif" font-size="14.00" fill="gray">\Doctrine\Common\DataFixtures\OrderedFixtureInterface</text>
</g>
<!-- \\IMIE\\CraftingBundle\\DataFixtures\\ORM\\RegisterData&#45;&gt;\\Doctrine\\Common\\DataFixtures\\OrderedFixtureInterface -->
<g id="edge3" class="edge"><title>\\IMIE\\CraftingBundle\\DataFixtures\\ORM\\RegisterData&#45;&gt;\\Doctrine\\Common\\DataFixtures\\OrderedFixtureInterface</title>
<path fill="none" stroke="black" stroke-dasharray="1,5" d="M599.227,-1802.74C576.172,-1798.88 548.709,-1792.27 525.956,-1781 509.28,-1772.74 511.059,-1761.33 493.956,-1754 478.608,-1747.42 462.25,-1742.21 445.542,-1738.12"/>
<polygon fill="none" stroke="black" points="446.201,-1734.68 435.67,-1735.83 444.623,-1741.5 446.201,-1734.68"/>
</g>
<!-- \\IMIE\\CraftingBundle\\DataFixtures\\ORM\\ContactData -->
<g id="node10" class="node"><title>\\IMIE\\CraftingBundle\\DataFixtures\\ORM\\ContactData</title>
<polygon fill="none" stroke="black" points="693.956,-1772 602.956,-1772 602.956,-1736 693.956,-1736 693.956,-1772"/>
<text text-anchor="middle" x="648.456" y="-1751.2" font-family="Courier,monospace" font-size="11.00">ContactData</text>
</g>
<!-- \\IMIE\\CraftingBundle\\DataFixtures\\ORM\\ContactData&#45;&gt;\\Doctrine\\Common\\DataFixtures\\AbstractFixture -->
<g id="edge5" class="edge"><title>\\IMIE\\CraftingBundle\\DataFixtures\\ORM\\ContactData&#45;&gt;\\Doctrine\\Common\\DataFixtures\\AbstractFixture</title>
<path fill="none" stroke="black" d="M602.794,-1757.02C556.027,-1760.18 479.806,-1765.33 409.974,-1770.05"/>
<polygon fill="none" stroke="black" points="409.462,-1766.58 399.721,-1770.74 409.935,-1773.56 409.462,-1766.58"/>
</g>
<!-- \\IMIE\\CraftingBundle\\DataFixtures\\ORM\\ContactData&#45;&gt;\\Doctrine\\Common\\DataFixtures\\OrderedFixtureInterface -->
<g id="edge6" class="edge"><title>\\IMIE\\CraftingBundle\\DataFixtures\\ORM\\ContactData&#45;&gt;\\Doctrine\\Common\\DataFixtures\\OrderedFixtureInterface</title>
<path fill="none" stroke="black" stroke-dasharray="1,5" d="M602.794,-1750.98C559.415,-1748.05 490.695,-1743.4 425.238,-1738.98"/>
<polygon fill="none" stroke="black" points="425.4,-1735.48 415.187,-1738.3 424.928,-1742.47 425.4,-1735.48"/>
</g>
<!-- \\IMIE\\CraftingBundle\\DataFixtures\\ORM\\HelmetData -->
<g id="node11" class="node"><title>\\IMIE\\CraftingBundle\\DataFixtures\\ORM\\HelmetData</title>
<polygon fill="none" stroke="black" points="690.456,-1718 606.456,-1718 606.456,-1682 690.456,-1682 690.456,-1718"/>
<text text-anchor="middle" x="648.456" y="-1697.2" font-family="Courier,monospace" font-size="11.00">HelmetData</text>
</g>
<!-- \\IMIE\\CraftingBundle\\DataFixtures\\ORM\\HelmetData&#45;&gt;\\Doctrine\\Common\\DataFixtures\\AbstractFixture -->
<g id="edge14" class="edge"><title>\\IMIE\\CraftingBundle\\DataFixtures\\ORM\\HelmetData&#45;&gt;\\Doctrine\\Common\\DataFixtures\\AbstractFixture</title>
<path fill="none" stroke="black" d="M606.425,-1704.12C582.068,-1707.77 551.13,-1714.54 525.956,-1727 509.28,-1735.26 511.059,-1746.67 493.956,-1754 474.354,-1762.41 453.103,-1768.57 431.581,-1773.04"/>
<polygon fill="none" stroke="black" points="430.821,-1769.62 421.679,-1774.97 432.164,-1776.49 430.821,-1769.62"/>
</g>
<!-- \\IMIE\\CraftingBundle\\DataFixtures\\ORM\\HelmetData&#45;&gt;\\Doctrine\\Common\\DataFixtures\\OrderedFixtureInterface -->
<g id="edge15" class="edge"><title>\\IMIE\\CraftingBundle\\DataFixtures\\ORM\\HelmetData&#45;&gt;\\Doctrine\\Common\\DataFixtures\\OrderedFixtureInterface</title>
<path fill="none" stroke="black" stroke-dasharray="1,5" d="M606.21,-1702.79C563.167,-1705.7 492.72,-1710.46 425.636,-1714.99"/>
<polygon fill="none" stroke="black" points="425.077,-1711.52 415.336,-1715.69 425.549,-1718.51 425.077,-1711.52"/>
</g>
<!-- \\IMIE\\CraftingBundle\\DataFixtures\\ORM\\LegData -->
<g id="node12" class="node"><title>\\IMIE\\CraftingBundle\\DataFixtures\\ORM\\LegData</title>
<polygon fill="none" stroke="black" points="680.456,-1664 616.456,-1664 616.456,-1628 680.456,-1628 680.456,-1664"/>
<text text-anchor="middle" x="648.456" y="-1643.2" font-family="Courier,monospace" font-size="11.00">LegData</text>
</g>
<!-- \\IMIE\\CraftingBundle\\DataFixtures\\ORM\\LegData&#45;&gt;\\Doctrine\\Common\\DataFixtures\\AbstractFixture -->
<g id="edge24" class="edge"><title>\\IMIE\\CraftingBundle\\DataFixtures\\ORM\\LegData&#45;&gt;\\Doctrine\\Common\\DataFixtures\\AbstractFixture</title>
<path fill="none" stroke="black" d="M616.225,-1645.18C589.337,-1646.12 551.019,-1651.61 525.956,-1673 496.517,-1698.13 524.725,-1730.51 493.956,-1754 477.961,-1766.21 459.586,-1774.85 440.235,-1780.83"/>
<polygon fill="none" stroke="black" points="439.016,-1777.54 430.351,-1783.64 440.927,-1784.27 439.016,-1777.54"/>
</g>
<!-- \\IMIE\\CraftingBundle\\DataFixtures\\ORM\\LegData&#45;&gt;\\Doctrine\\Common\\DataFixtures\\OrderedFixtureInterface -->
<g id="edge25" class="edge"><title>\\IMIE\\CraftingBundle\\DataFixtures\\ORM\\LegData&#45;&gt;\\Doctrine\\Common\\DataFixtures\\OrderedFixtureInterface</title>
<path fill="none" stroke="black" stroke-dasharray="1,5" d="M616.442,-1652.29C557.839,-1664.17 428.773,-1690.34 340.081,-1708.32"/>
<polygon fill="none" stroke="black" points="339.118,-1704.95 330.013,-1710.37 340.509,-1711.81 339.118,-1704.95"/>
</g>
<!-- \\IMIE\\CraftingBundle\\DataFixtures\\ORM\\BootData -->
<g id="node13" class="node"><title>\\IMIE\\CraftingBundle\\DataFixtures\\ORM\\BootData</title>
<polygon fill="none" stroke="black" points="683.956,-1610 612.956,-1610 612.956,-1574 683.956,-1574 683.956,-1610"/>
<text text-anchor="middle" x="648.456" y="-1589.2" font-family="Courier,monospace" font-size="11.00">BootData</text>
</g>
<!-- \\IMIE\\CraftingBundle\\DataFixtures\\ORM\\BootData&#45;&gt;\\Doctrine\\Common\\DataFixtures\\AbstractFixture -->
<g id="edge31" class="edge"><title>\\IMIE\\CraftingBundle\\DataFixtures\\ORM\\BootData&#45;&gt;\\Doctrine\\Common\\DataFixtures\\AbstractFixture</title>
<path fill="none" stroke="black" d="M612.711,-1590.38C585.529,-1591.07 548.651,-1596.62 525.956,-1619 482.048,-1662.29 540.164,-1713.17 493.956,-1754 460.729,-1783.36 414.312,-1793.43 370.741,-1795"/>
<polygon fill="none" stroke="black" points="370.542,-1791.51 360.619,-1795.22 370.692,-1798.5 370.542,-1791.51"/>
</g>
<!-- \\IMIE\\CraftingBundle\\DataFixtures\\ORM\\BootData&#45;&gt;\\Doctrine\\Common\\DataFixtures\\OrderedFixtureInterface -->
<g id="edge32" class="edge"><title>\\IMIE\\CraftingBundle\\DataFixtures\\ORM\\BootData&#45;&gt;\\Doctrine\\Common\\DataFixtures\\OrderedFixtureInterface</title>
<path fill="none" stroke="black" stroke-dasharray="1,5" d="M612.792,-1598.25C588.288,-1603.02 554.801,-1610.25 525.956,-1619 444.166,-1643.82 352.263,-1681.54 297.305,-1705.2"/>
<polygon fill="none" stroke="black" points="295.604,-1702.13 287.815,-1709.31 298.383,-1708.55 295.604,-1702.13"/>
</g>
<!-- \\IMIE\\CraftingBundle\\DataFixtures\\ORM\\GuildData -->
<g id="node14" class="node"><title>\\IMIE\\CraftingBundle\\DataFixtures\\ORM\\GuildData</title>
<polygon fill="none" stroke="black" points="686.956,-1934 609.956,-1934 609.956,-1898 686.956,-1898 686.956,-1934"/>
<text text-anchor="middle" x="648.456" y="-1913.2" font-family="Courier,monospace" font-size="11.00">GuildData</text>
</g>
<!-- \\IMIE\\CraftingBundle\\DataFixtures\\ORM\\GuildData&#45;&gt;\\Doctrine\\Common\\DataFixtures\\AbstractFixture -->
<g id="edge37" class="edge"><title>\\IMIE\\CraftingBundle\\DataFixtures\\ORM\\GuildData&#45;&gt;\\Doctrine\\Common\\DataFixtures\\AbstractFixture</title>
<path fill="none" stroke="black" d="M609.853,-1909.18C585.654,-1904.41 553.664,-1897.41 525.956,-1889 444.166,-1864.18 352.263,-1826.46 297.305,-1802.8"/>
<polygon fill="none" stroke="black" points="298.383,-1799.45 287.815,-1798.69 295.604,-1805.87 298.383,-1799.45"/>
</g>
<!-- \\IMIE\\CraftingBundle\\DataFixtures\\ORM\\GuildData&#45;&gt;\\Doctrine\\Common\\DataFixtures\\OrderedFixtureInterface -->
<g id="edge38" class="edge"><title>\\IMIE\\CraftingBundle\\DataFixtures\\ORM\\GuildData&#45;&gt;\\Doctrine\\Common\\DataFixtures\\OrderedFixtureInterface</title>
<path fill="none" stroke="black" stroke-dasharray="1,5" d="M609.914,-1917.53C583.045,-1916.54 547.882,-1910.62 525.956,-1889 482.048,-1845.71 540.164,-1794.83 493.956,-1754 485.637,-1746.65 476.492,-1740.51 466.771,-1735.41"/>
<polygon fill="none" stroke="black" points="468.215,-1732.22 457.69,-1731.01 465.164,-1738.52 468.215,-1732.22"/>
</g>
<!-- \\IMIE\\CraftingBundle\\DataFixtures\\ORM\\PersoData -->
<g id="node15" class="node"><title>\\IMIE\\CraftingBundle\\DataFixtures\\ORM\\PersoData</title>
<polygon fill="none" stroke="black" points="686.956,-1880 609.956,-1880 609.956,-1844 686.956,-1844 686.956,-1880"/>
<text text-anchor="middle" x="648.456" y="-1859.2" font-family="Courier,monospace" font-size="11.00">PersoData</text>
</g>
<!-- \\IMIE\\CraftingBundle\\DataFixtures\\ORM\\PersoData&#45;&gt;\\Doctrine\\Common\\DataFixtures\\AbstractFixture -->
<g id="edge39" class="edge"><title>\\IMIE\\CraftingBundle\\DataFixtures\\ORM\\PersoData&#45;&gt;\\Doctrine\\Common\\DataFixtures\\AbstractFixture</title>
<path fill="none" stroke="black" d="M609.874,-1854.38C548.127,-1841.86 423.533,-1816.6 337.944,-1799.24"/>
<polygon fill="none" stroke="black" points="338.464,-1795.78 327.968,-1797.22 337.073,-1802.64 338.464,-1795.78"/>
</g>
<!-- \\IMIE\\CraftingBundle\\DataFixtures\\ORM\\PersoData&#45;&gt;\\Doctrine\\Common\\DataFixtures\\OrderedFixtureInterface -->
<g id="edge40" class="edge"><title>\\IMIE\\CraftingBundle\\DataFixtures\\ORM\\PersoData&#45;&gt;\\Doctrine\\Common\\DataFixtures\\OrderedFixtureInterface</title>
<path fill="none" stroke="black" stroke-dasharray="1,5" d="M609.677,-1862.51C583.389,-1860.92 549.047,-1854.71 525.956,-1835 496.517,-1809.87 524.725,-1777.49 493.956,-1754 484.646,-1746.89 474.528,-1740.99 463.882,-1736.13"/>
<polygon fill="none" stroke="black" points="464.969,-1732.79 454.396,-1732.11 462.24,-1739.23 464.969,-1732.79"/>
</g>
<!-- \\IMIE\\CraftingBundle\\Entity\\Helmet -->
<g id="node16" class="node"><title>\\IMIE\\CraftingBundle\\Entity\\Helmet</title>
<polygon fill="none" stroke="black" points="676.956,-1522 619.956,-1522 619.956,-1486 676.956,-1486 676.956,-1522"/>
<text text-anchor="middle" x="648.456" y="-1501.2" font-family="Courier,monospace" font-size="11.00">Helmet</text>
</g>
<!-- \\IMIE\\CraftingBundle\\Entity\\Leg -->
<g id="node17" class="node"><title>\\IMIE\\CraftingBundle\\Entity\\Leg</title>
<polygon fill="none" stroke="black" points="675.456,-1468 621.456,-1468 621.456,-1432 675.456,-1432 675.456,-1468"/>
<text text-anchor="middle" x="648.456" y="-1447.2" font-family="Courier,monospace" font-size="11.00">Leg</text>
</g>
<!-- \\IMIE\\CraftingBundle\\Entity\\Boot -->
<g id="node18" class="node"><title>\\IMIE\\CraftingBundle\\Entity\\Boot</title>
<polygon fill="none" stroke="black" points="675.456,-1414 621.456,-1414 621.456,-1378 675.456,-1378 675.456,-1414"/>
<text text-anchor="middle" x="648.456" y="-1393.2" font-family="Courier,monospace" font-size="11.00">Boot</text>
</g>
<!-- \\IMIE\\CraftingBundle\\Entity\\Perso -->
<g id="node19" class="node"><title>\\IMIE\\CraftingBundle\\Entity\\Perso</title>
<polygon fill="none" stroke="black" points="675.456,-1360 621.456,-1360 621.456,-1324 675.456,-1324 675.456,-1360"/>
<text text-anchor="middle" x="648.456" y="-1339.2" font-family="Courier,monospace" font-size="11.00">Perso</text>
</g>
<!-- \\IMIE\\CraftingBundle\\Entity\\Contact -->
<g id="node20" class="node"><title>\\IMIE\\CraftingBundle\\Entity\\Contact</title>
<polygon fill="none" stroke="black" points="680.456,-1306 616.456,-1306 616.456,-1270 680.456,-1270 680.456,-1306"/>
<text text-anchor="middle" x="648.456" y="-1285.2" font-family="Courier,monospace" font-size="11.00">Contact</text>
</g>
<!-- \\IMIE\\CraftingBundle\\Entity\\Register -->
<g id="node21" class="node"><title>\\IMIE\\CraftingBundle\\Entity\\Register</title>
<polygon fill="none" stroke="black" points="683.956,-1252 612.956,-1252 612.956,-1216 683.956,-1216 683.956,-1252"/>
<text text-anchor="middle" x="648.456" y="-1231.2" font-family="Courier,monospace" font-size="11.00">Register</text>
</g>
<!-- \\IMIE\\CraftingBundle\\Entity\\Guild -->
<g id="node22" class="node"><title>\\IMIE\\CraftingBundle\\Entity\\Guild</title>
<polygon fill="none" stroke="black" points="675.456,-1198 621.456,-1198 621.456,-1162 675.456,-1162 675.456,-1198"/>
<text text-anchor="middle" x="648.456" y="-1177.2" font-family="Courier,monospace" font-size="11.00">Guild</text>
</g>
<!-- \\IMIE\\CraftingBundle\\DependencyInjection\\IMIECraftingExtension -->
<g id="node23" class="node"><title>\\IMIE\\CraftingBundle\\DependencyInjection\\IMIECraftingExtension</title>
<polygon fill="none" stroke="black" points="727.456,-1118 569.456,-1118 569.456,-1082 727.456,-1082 727.456,-1118"/>
<text text-anchor="middle" x="648.456" y="-1097.2" font-family="Courier,monospace" font-size="11.00">IMIECraftingExtension</text>
</g>
<!-- \\Symfony\\Component\\HttpKernel\\DependencyInjection\\Extension -->
<g id="node45" class="node"><title>\\Symfony\\Component\\HttpKernel\\DependencyInjection\\Extension</title>
<ellipse fill="none" stroke="black" cx="246.978" cy="-1100" rx="246.956" ry="18"/>
<text text-anchor="middle" x="246.978" y="-1096.3" font-family="Times,serif" font-size="14.00" fill="gray">\Symfony\Component\HttpKernel\DependencyInjection\Extension</text>
</g>
<!-- \\IMIE\\CraftingBundle\\DependencyInjection\\IMIECraftingExtension&#45;&gt;\\Symfony\\Component\\HttpKernel\\DependencyInjection\\Extension -->
<g id="edge4" class="edge"><title>\\IMIE\\CraftingBundle\\DependencyInjection\\IMIECraftingExtension&#45;&gt;\\Symfony\\Component\\HttpKernel\\DependencyInjection\\Extension</title>
<path fill="none" stroke="black" d="M569.009,-1100C549.425,-1100 527.337,-1100 504.144,-1100"/>
<polygon fill="none" stroke="black" points="504.141,-1096.5 494.141,-1100 504.14,-1103.5 504.141,-1096.5"/>
</g>
<!-- \\IMIE\\CraftingBundle\\DependencyInjection\\Configuration -->
<g id="node24" class="node"><title>\\IMIE\\CraftingBundle\\DependencyInjection\\Configuration</title>
<polygon fill="none" stroke="black" points="700.456,-1064 596.456,-1064 596.456,-1028 700.456,-1028 700.456,-1064"/>
<text text-anchor="middle" x="648.456" y="-1043.2" font-family="Courier,monospace" font-size="11.00">Configuration</text>
</g>
<!-- \\Symfony\\Component\\Config\\Definition\\ConfigurationInterface -->
<g id="node49" class="node"><title>\\Symfony\\Component\\Config\\Definition\\ConfigurationInterface</title>
<ellipse fill="none" stroke="black" cx="246.978" cy="-1046" rx="237.758" ry="18"/>
<text text-anchor="middle" x="246.978" y="-1042.3" font-family="Times,serif" font-size="14.00" fill="gray">\Symfony\Component\Config\Definition\ConfigurationInterface</text>
</g>
<!-- \\IMIE\\CraftingBundle\\DependencyInjection\\Configuration&#45;&gt;\\Symfony\\Component\\Config\\Definition\\ConfigurationInterface -->
<g id="edge21" class="edge"><title>\\IMIE\\CraftingBundle\\DependencyInjection\\Configuration&#45;&gt;\\Symfony\\Component\\Config\\Definition\\ConfigurationInterface</title>
<path fill="none" stroke="black" stroke-dasharray="1,5" d="M596.049,-1046C568.871,-1046 533.298,-1046 495.285,-1046"/>
<polygon fill="none" stroke="black" points="495.04,-1042.5 485.04,-1046 495.039,-1049.5 495.04,-1042.5"/>
</g>
<!-- \\IMIE\\CraftingBundle\\Controller\\HelmetController -->
<g id="node25" class="node"><title>\\IMIE\\CraftingBundle\\Controller\\HelmetController</title>
<polygon fill="none" stroke="black" points="710.956,-930 585.956,-930 585.956,-894 710.956,-894 710.956,-930"/>
<text text-anchor="middle" x="648.456" y="-909.2" font-family="Courier,monospace" font-size="11.00">HelmetController</text>
</g>
<!-- \\FOS\\RestBundle\\Controller\\FOSRestController -->
<g id="node46" class="node"><title>\\FOS\\RestBundle\\Controller\\FOSRestController</title>
<ellipse fill="none" stroke="black" cx="246.978" cy="-804" rx="181.168" ry="18"/>
<text text-anchor="middle" x="246.978" y="-800.3" font-family="Times,serif" font-size="14.00" fill="gray">\FOS\RestBundle\Controller\FOSRestController</text>
</g>
<!-- \\IMIE\\CraftingBundle\\Controller\\HelmetController&#45;&gt;\\FOS\\RestBundle\\Controller\\FOSRestController -->
<g id="edge7" class="edge"><title>\\IMIE\\CraftingBundle\\Controller\\HelmetController&#45;&gt;\\FOS\\RestBundle\\Controller\\FOSRestController</title>
<path fill="none" stroke="black" d="M585.773,-899.105C566.549,-894.869 545.317,-889.966 525.956,-885 452.464,-866.148 369.001,-841.368 312.872,-824.204"/>
<polygon fill="none" stroke="black" points="313.653,-820.783 303.066,-821.198 311.601,-827.476 313.653,-820.783"/>
</g>
<!-- \\IMIE\\CraftingBundle\\Controller\\DefaultController -->
<g id="node26" class="node"><title>\\IMIE\\CraftingBundle\\Controller\\DefaultController</title>
<polygon fill="none" stroke="black" points="713.956,-606 582.956,-606 582.956,-570 713.956,-570 713.956,-606"/>
<text text-anchor="middle" x="648.456" y="-585.2" font-family="Courier,monospace" font-size="11.00">DefaultController</text>
</g>
<!-- \\Symfony\\Bundle\\FrameworkBundle\\Controller\\Controller -->
<g id="node48" class="node"><title>\\Symfony\\Bundle\\FrameworkBundle\\Controller\\Controller</title>
<ellipse fill="none" stroke="black" cx="246.978" cy="-548" rx="219.861" ry="18"/>
<text text-anchor="middle" x="246.978" y="-544.3" font-family="Times,serif" font-size="14.00" fill="gray">\Symfony\Bundle\FrameworkBundle\Controller\Controller</text>
</g>
<!-- \\IMIE\\CraftingBundle\\Controller\\DefaultController&#45;&gt;\\Symfony\\Bundle\\FrameworkBundle\\Controller\\Controller -->
<g id="edge10" class="edge"><title>\\IMIE\\CraftingBundle\\Controller\\DefaultController&#45;&gt;\\Symfony\\Bundle\\FrameworkBundle\\Controller\\Controller</title>
<path fill="none" stroke="black" d="M582.829,-581.529C532.733,-576.513 461.289,-569.359 397.252,-562.947"/>
<polygon fill="none" stroke="black" points="397.341,-559.438 387.042,-561.925 396.644,-566.404 397.341,-559.438"/>
</g>
<!-- \\IMIE\\CraftingBundle\\Controller\\PersoController -->
<g id="node27" class="node"><title>\\IMIE\\CraftingBundle\\Controller\\PersoController</title>
<polygon fill="none" stroke="black" points="707.456,-876 589.456,-876 589.456,-840 707.456,-840 707.456,-876"/>
<text text-anchor="middle" x="648.456" y="-855.2" font-family="Courier,monospace" font-size="11.00">PersoController</text>
</g>
<!-- \\IMIE\\CraftingBundle\\Controller\\PersoController&#45;&gt;\\FOS\\RestBundle\\Controller\\FOSRestController -->
<g id="edge12" class="edge"><title>\\IMIE\\CraftingBundle\\Controller\\PersoController&#45;&gt;\\FOS\\RestBundle\\Controller\\FOSRestController</title>
<path fill="none" stroke="black" d="M589.369,-850.148C530.88,-842.242 439.004,-829.822 365.292,-819.858"/>
<polygon fill="none" stroke="black" points="365.395,-816.34 355.017,-818.469 364.458,-823.277 365.395,-816.34"/>
</g>
<!-- \\IMIE\\CraftingBundle\\Controller\\GuildController -->
<g id="node28" class="node"><title>\\IMIE\\CraftingBundle\\Controller\\GuildController</title>
<polygon fill="none" stroke="black" points="707.456,-822 589.456,-822 589.456,-786 707.456,-786 707.456,-822"/>
<text text-anchor="middle" x="648.456" y="-801.2" font-family="Courier,monospace" font-size="11.00">GuildController</text>
</g>
<!-- \\IMIE\\CraftingBundle\\Controller\\GuildController&#45;&gt;\\FOS\\RestBundle\\Controller\\FOSRestController -->
<g id="edge16" class="edge"><title>\\IMIE\\CraftingBundle\\Controller\\GuildController&#45;&gt;\\FOS\\RestBundle\\Controller\\FOSRestController</title>
<path fill="none" stroke="black" d="M589.369,-804C549.338,-804 493.67,-804 438.888,-804"/>
<polygon fill="none" stroke="black" points="438.673,-800.5 428.673,-804 438.673,-807.5 438.673,-800.5"/>
</g>
<!-- \\IMIE\\CraftingBundle\\Controller\\RegisterController -->
<g id="node29" class="node"><title>\\IMIE\\CraftingBundle\\Controller\\RegisterController</title>
<polygon fill="none" stroke="black" points="717.456,-768 579.456,-768 579.456,-732 717.456,-732 717.456,-768"/>
<text text-anchor="middle" x="648.456" y="-747.2" font-family="Courier,monospace" font-size="11.00">RegisterController</text>
</g>
<!-- \\IMIE\\CraftingBundle\\Controller\\RegisterController&#45;&gt;\\FOS\\RestBundle\\Controller\\FOSRestController -->
<g id="edge23" class="edge"><title>\\IMIE\\CraftingBundle\\Controller\\RegisterController&#45;&gt;\\FOS\\RestBundle\\Controller\\FOSRestController</title>
<path fill="none" stroke="black" d="M579.237,-759.222C520.616,-767.146 434.786,-778.748 365.182,-788.157"/>
<polygon fill="none" stroke="black" points="364.476,-784.72 355.035,-789.528 365.414,-791.657 364.476,-784.72"/>
</g>
<!-- \\IMIE\\CraftingBundle\\Controller\\LegController -->
<g id="node30" class="node"><title>\\IMIE\\CraftingBundle\\Controller\\LegController</title>
<polygon fill="none" stroke="black" points="700.456,-714 596.456,-714 596.456,-678 700.456,-678 700.456,-714"/>
<text text-anchor="middle" x="648.456" y="-693.2" font-family="Courier,monospace" font-size="11.00">LegController</text>
</g>
<!-- \\IMIE\\CraftingBundle\\Controller\\LegController&#45;&gt;\\FOS\\RestBundle\\Controller\\FOSRestController -->
<g id="edge29" class="edge"><title>\\IMIE\\CraftingBundle\\Controller\\LegController&#45;&gt;\\FOS\\RestBundle\\Controller\\FOSRestController</title>
<path fill="none" stroke="black" d="M596.442,-706.566C574.65,-711.278 548.98,-717.094 525.956,-723 452.464,-741.852 369.001,-766.632 312.872,-783.796"/>
<polygon fill="none" stroke="black" points="311.601,-780.524 303.066,-786.802 313.653,-787.217 311.601,-780.524"/>
</g>
<!-- \\IMIE\\CraftingBundle\\Controller\\ContactController -->
<g id="node31" class="node"><title>\\IMIE\\CraftingBundle\\Controller\\ContactController</title>
<polygon fill="none" stroke="black" points="713.956,-660 582.956,-660 582.956,-624 713.956,-624 713.956,-660"/>
<text text-anchor="middle" x="648.456" y="-639.2" font-family="Courier,monospace" font-size="11.00">ContactController</text>
</g>
<!-- \\IMIE\\CraftingBundle\\Controller\\ContactController&#45;&gt;\\FOS\\RestBundle\\Controller\\FOSRestController -->
<g id="edge33" class="edge"><title>\\IMIE\\CraftingBundle\\Controller\\ContactController&#45;&gt;\\FOS\\RestBundle\\Controller\\FOSRestController</title>
<path fill="none" stroke="black" d="M582.67,-653.467C564.107,-657.537 544.014,-662.706 525.956,-669 437.542,-699.817 340.486,-751.358 287.661,-781.044"/>
<polygon fill="none" stroke="black" points="285.619,-778.178 278.636,-786.146 289.064,-784.272 285.619,-778.178"/>
</g>
<!-- \\IMIE\\CraftingBundle\\Controller\\BootController -->
<g id="node32" class="node"><title>\\IMIE\\CraftingBundle\\Controller\\BootController</title>
<polygon fill="none" stroke="black" points="703.956,-984 592.956,-984 592.956,-948 703.956,-948 703.956,-984"/>
<text text-anchor="middle" x="648.456" y="-963.2" font-family="Courier,monospace" font-size="11.00">BootController</text>
</g>
<!-- \\IMIE\\CraftingBundle\\Controller\\BootController&#45;&gt;\\FOS\\RestBundle\\Controller\\FOSRestController -->
<g id="edge34" class="edge"><title>\\IMIE\\CraftingBundle\\Controller\\BootController&#45;&gt;\\FOS\\RestBundle\\Controller\\FOSRestController</title>
<path fill="none" stroke="black" d="M592.87,-956.695C571.67,-952.352 547.381,-946.468 525.956,-939 437.542,-908.183 340.486,-856.642 287.661,-826.956"/>
<polygon fill="none" stroke="black" points="289.064,-823.728 278.636,-821.854 285.619,-829.822 289.064,-823.728"/>
</g>
<!-- \\IMIE\\CraftingBundle\\Form\\ContactType -->
<g id="node33" class="node"><title>\\IMIE\\CraftingBundle\\Form\\ContactType</title>
<polygon fill="none" stroke="black" points="693.956,-176 602.956,-176 602.956,-140 693.956,-140 693.956,-176"/>
<text text-anchor="middle" x="648.456" y="-155.2" font-family="Courier,monospace" font-size="11.00">ContactType</text>
</g>
<!-- \\Symfony\\Component\\Form\\AbstractType -->
<g id="node47" class="node"><title>\\Symfony\\Component\\Form\\AbstractType</title>
<ellipse fill="none" stroke="black" cx="246.978" cy="-266" rx="161.671" ry="18"/>
<text text-anchor="middle" x="246.978" y="-262.3" font-family="Times,serif" font-size="14.00" fill="gray">\Symfony\Component\Form\AbstractType</text>
</g>
<!-- \\IMIE\\CraftingBundle\\Form\\ContactType&#45;&gt;\\Symfony\\Component\\Form\\AbstractType -->
<g id="edge8" class="edge"><title>\\IMIE\\CraftingBundle\\Form\\ContactType&#45;&gt;\\Symfony\\Component\\Form\\AbstractType</title>
<path fill="none" stroke="black" d="M602.857,-167.186C579.811,-172.116 551.282,-178.503 525.956,-185 452.119,-203.941 368.218,-228.864 312.085,-246.036"/>
<polygon fill="none" stroke="black" points="310.816,-242.764 302.282,-249.043 312.869,-249.457 310.816,-242.764"/>
</g>
<!-- \\IMIE\\CraftingBundle\\Form\\LegType -->
<g id="node34" class="node"><title>\\IMIE\\CraftingBundle\\Form\\LegType</title>
<polygon fill="none" stroke="black" points="680.456,-122 616.456,-122 616.456,-86 680.456,-86 680.456,-122"/>
<text text-anchor="middle" x="648.456" y="-101.2" font-family="Courier,monospace" font-size="11.00">LegType</text>
</g>
<!-- \\IMIE\\CraftingBundle\\Form\\LegType&#45;&gt;\\Symfony\\Component\\Form\\AbstractType -->
<g id="edge17" class="edge"><title>\\IMIE\\CraftingBundle\\Form\\LegType&#45;&gt;\\Symfony\\Component\\Form\\AbstractType</title>
<path fill="none" stroke="black" d="M616.446,-108.83C591.56,-113.195 555.951,-120.545 525.956,-131 437.542,-161.817 340.486,-213.358 287.661,-243.044"/>
<polygon fill="none" stroke="black" points="285.619,-240.178 278.636,-248.146 289.064,-246.272 285.619,-240.178"/>
</g>
<!-- \\IMIE\\CraftingBundle\\Form\\RegisterType -->
<g id="node35" class="node"><title>\\IMIE\\CraftingBundle\\Form\\RegisterType</title>
<polygon fill="none" stroke="black" points="697.456,-446 599.456,-446 599.456,-410 697.456,-410 697.456,-446"/>
<text text-anchor="middle" x="648.456" y="-425.2" font-family="Courier,monospace" font-size="11.00">RegisterType</text>
</g>
<!-- \\IMIE\\CraftingBundle\\Form\\RegisterType&#45;&gt;\\Symfony\\Component\\Form\\AbstractType -->
<g id="edge18" class="edge"><title>\\IMIE\\CraftingBundle\\Form\\RegisterType&#45;&gt;\\Symfony\\Component\\Form\\AbstractType</title>
<path fill="none" stroke="black" d="M599.425,-420.009C576.791,-415.567 549.625,-409.25 525.956,-401 437.542,-370.183 340.486,-318.642 287.661,-288.956"/>
<polygon fill="none" stroke="black" points="289.064,-285.728 278.636,-283.854 285.619,-291.822 289.064,-285.728"/>
</g>
<!-- \\IMIE\\CraftingBundle\\Form\\BootType -->
<g id="node36" class="node"><title>\\IMIE\\CraftingBundle\\Form\\BootType</title>
<polygon fill="none" stroke="black" points="683.956,-392 612.956,-392 612.956,-356 683.956,-356 683.956,-392"/>
<text text-anchor="middle" x="648.456" y="-371.2" font-family="Courier,monospace" font-size="11.00">BootType</text>
</g>
<!-- \\IMIE\\CraftingBundle\\Form\\BootType&#45;&gt;\\Symfony\\Component\\Form\\AbstractType -->
<g id="edge20" class="edge"><title>\\IMIE\\CraftingBundle\\Form\\BootType&#45;&gt;\\Symfony\\Component\\Form\\AbstractType</title>
<path fill="none" stroke="black" d="M612.749,-366.913C588.37,-361.782 555.05,-354.463 525.956,-347 452.119,-328.059 368.218,-303.136 312.085,-285.964"/>
<polygon fill="none" stroke="black" points="312.869,-282.543 302.282,-282.957 310.816,-289.236 312.869,-282.543"/>
</g>
<!-- \\IMIE\\CraftingBundle\\Form\\HelmetType -->
<g id="node37" class="node"><title>\\IMIE\\CraftingBundle\\Form\\HelmetType</title>
<polygon fill="none" stroke="black" points="690.456,-338 606.456,-338 606.456,-302 690.456,-302 690.456,-338"/>
<text text-anchor="middle" x="648.456" y="-317.2" font-family="Courier,monospace" font-size="11.00">HelmetType</text>
</g>
<!-- \\IMIE\\CraftingBundle\\Form\\HelmetType&#45;&gt;\\Symfony\\Component\\Form\\AbstractType -->
<g id="edge30" class="edge"><title>\\IMIE\\CraftingBundle\\Form\\HelmetType&#45;&gt;\\Symfony\\Component\\Form\\AbstractType</title>
<path fill="none" stroke="black" d="M606.21,-314.424C548.8,-306.664 442.636,-292.313 360.727,-281.241"/>
<polygon fill="none" stroke="black" points="360.989,-277.745 350.61,-279.873 360.051,-284.682 360.989,-277.745"/>
</g>
<!-- \\IMIE\\CraftingBundle\\Form\\GuildType -->
<g id="node38" class="node"><title>\\IMIE\\CraftingBundle\\Form\\GuildType</title>
<polygon fill="none" stroke="black" points="686.956,-284 609.956,-284 609.956,-248 686.956,-248 686.956,-284"/>
<text text-anchor="middle" x="648.456" y="-263.2" font-family="Courier,monospace" font-size="11.00">GuildType</text>
</g>
<!-- \\IMIE\\CraftingBundle\\Form\\GuildType&#45;&gt;\\Symfony\\Component\\Form\\AbstractType -->
<g id="edge35" class="edge"><title>\\IMIE\\CraftingBundle\\Form\\GuildType&#45;&gt;\\Symfony\\Component\\Form\\AbstractType</title>
<path fill="none" stroke="black" d="M609.874,-266C566,-266 490.396,-266 419.601,-266"/>
<polygon fill="none" stroke="black" points="419.195,-262.5 409.195,-266 419.195,-269.5 419.195,-262.5"/>
</g>
<!-- \\IMIE\\CraftingBundle\\Form\\PersoType -->
<g id="node39" class="node"><title>\\IMIE\\CraftingBundle\\Form\\PersoType</title>
<polygon fill="none" stroke="black" points="686.956,-230 609.956,-230 609.956,-194 686.956,-194 686.956,-230"/>
<text text-anchor="middle" x="648.456" y="-209.2" font-family="Courier,monospace" font-size="11.00">PersoType</text>
</g>
<!-- \\IMIE\\CraftingBundle\\Form\\PersoType&#45;&gt;\\Symfony\\Component\\Form\\AbstractType -->
<g id="edge36" class="edge"><title>\\IMIE\\CraftingBundle\\Form\\PersoType&#45;&gt;\\Symfony\\Component\\Form\\AbstractType</title>
<path fill="none" stroke="black" d="M609.874,-217.08C553.415,-224.712 444.415,-239.446 360.731,-250.759"/>
<polygon fill="none" stroke="black" points="360.097,-247.312 350.656,-252.12 361.035,-254.249 360.097,-247.312"/>
</g>
<!-- \\IMIE\\CraftingBundle\\Service\\BootService -->
<g id="node40" class="node"><title>\\IMIE\\CraftingBundle\\Service\\BootService</title>
<polygon fill="none" stroke="black" points="693.956,-526 602.956,-526 602.956,-490 693.956,-490 693.956,-526"/>
<text text-anchor="middle" x="648.456" y="-505.2" font-family="Courier,monospace" font-size="11.00">BootService</text>
</g>
<!-- \\IMIE\\CraftingBundle\\Service\\BootService&#45;&gt;\\Symfony\\Bundle\\FrameworkBundle\\Controller\\Controller -->
<g id="edge41" class="edge"><title>\\IMIE\\CraftingBundle\\Service\\BootService&#45;&gt;\\Symfony\\Bundle\\FrameworkBundle\\Controller\\Controller</title>
<path fill="none" stroke="black" d="M602.794,-512.472C553.111,-517.447 470.189,-525.75 396.997,-533.079"/>
<polygon fill="none" stroke="black" points="396.34,-529.627 386.739,-534.106 397.038,-536.592 396.34,-529.627"/>
</g>
<!-- \\IMIE\\CraftingBundle\\IMIECraftingBundle -->
<g id="node41" class="node"><title>\\IMIE\\CraftingBundle\\IMIECraftingBundle</title>
<polygon fill="none" stroke="black" points="717.456,-68 579.456,-68 579.456,-32 717.456,-32 717.456,-68"/>
<text text-anchor="middle" x="648.456" y="-47.2" font-family="Courier,monospace" font-size="11.00">IMIECraftingBundle</text>
</g>
<!-- \\Symfony\\Component\\HttpKernel\\Bundle\\Bundle -->
<g id="node50" class="node"><title>\\Symfony\\Component\\HttpKernel\\Bundle\\Bundle</title>
<ellipse fill="none" stroke="black" cx="246.978" cy="-50" rx="187.367" ry="18"/>
<text text-anchor="middle" x="246.978" y="-46.3" font-family="Times,serif" font-size="14.00" fill="gray">\Symfony\Component\HttpKernel\Bundle\Bundle</text>
</g>
<!-- \\IMIE\\CraftingBundle\\IMIECraftingBundle&#45;&gt;\\Symfony\\Component\\HttpKernel\\Bundle\\Bundle -->
<g id="edge26" class="edge"><title>\\IMIE\\CraftingBundle\\IMIECraftingBundle&#45;&gt;\\Symfony\\Component\\HttpKernel\\Bundle\\Bundle</title>
<path fill="none" stroke="black" d="M579.237,-50C541.607,-50 492.764,-50 444.199,-50"/>
<polygon fill="none" stroke="black" points="444.17,-46.5001 434.17,-50 444.17,-53.5001 444.17,-46.5001"/>
</g>
</g>
</svg>
